<?xml version="1.0" standalone="no"?>
<!DOCTYPE svg PUBLIC "-//W3C//DTD SVG 20010904//EN"
 "http://www.w3.org/TR/2001/REC-SVG-20010904/DTD/svg10.dtd">
<svg version="1.0" xmlns="http://www.w3.org/2000/svg"
 width="500.000000pt" height="500.000000pt" viewBox="0 0 500.000000 500.000000"
 preserveAspectRatio="xMidYMid meet">
<metadata>
Created by potrace 1.14, written by Peter Selinger 2001-2017
</metadata>
<g transform="translate(0.000000,500.000000) scale(0.100000,-0.100000)"
fill="#000000" stroke="none">
<path d="M2373 4523 c4 -7 -7 -12 -28 -15 -19 -2 -37 1 -39 7 -2 5 -5 4 -5 -3
-1 -7 -5 -10 -11 -7 -5 3 -10 1 -10 -5 0 -8 -6 -7 -21 1 -13 7 -24 7 -28 2 -3
-6 -16 -9 -28 -8 -13 1 -23 -2 -23 -6 0 -4 -9 -5 -20 -2 -13 3 -20 0 -20 -8 0
-11 -2 -11 -10 1 -7 11 -10 11 -10 2 0 -7 -4 -10 -10 -7 -5 3 -10 2 -10 -3 0
-6 -9 -8 -20 -5 -13 3 -20 0 -20 -8 0 -11 -2 -11 -10 1 -6 10 -10 11 -10 3 0
-7 -5 -13 -11 -13 -5 0 -7 6 -3 13 6 8 3 8 -9 -1 -9 -8 -21 -11 -26 -7 -7 4
-8 -1 -4 -12 6 -16 5 -16 -10 -4 -15 12 -21 9 -18 -11 0 -3 -14 -2 -31 2 -17
5 -28 7 -24 3 3 -3 1 -12 -5 -20 -10 -11 -15 -11 -27 -1 -13 11 -15 10 -9 -6
6 -16 5 -17 -8 -6 -14 11 -19 7 -16 -13 1 -4 -7 -3 -18 2 -15 8 -20 7 -25 -5
-3 -9 -12 -14 -19 -11 -6 2 -21 -3 -31 -12 -16 -13 -18 -13 -12 -1 6 12 4 11
-6 -1 -7 -9 -21 -15 -30 -13 -10 1 -18 -4 -18 -12 0 -12 -4 -13 -22 -3 -13 6
-20 8 -16 4 8 -9 -14 -35 -25 -28 -4 2 -14 -3 -23 -11 -9 -9 -20 -14 -25 -11
-5 4 -9 2 -9 -2 0 -5 -9 -14 -21 -21 -12 -8 -18 -9 -14 -3 3 6 1 11 -4 11 -6
0 -11 -7 -11 -15 0 -8 -7 -15 -15 -15 -9 0 -18 -7 -21 -15 -5 -13 -9 -13 -22
-3 -9 8 -13 8 -9 2 4 -7 0 -17 -8 -24 -12 -10 -15 -10 -15 0 0 8 -3 10 -7 6
-5 -4 -8 -13 -8 -19 0 -7 -10 -12 -21 -11 -14 1 -21 -5 -20 -15 0 -9 -5 -15
-12 -13 -6 1 -26 -11 -44 -28 -17 -16 -35 -30 -40 -30 -16 0 -40 -29 -33 -40
3 -6 0 -7 -9 -4 -9 4 -18 -1 -22 -10 -3 -9 -10 -13 -15 -10 -5 3 -9 0 -9 -6 0
-6 -4 -8 -10 -5 -6 3 -7 -1 -4 -9 4 -11 0 -16 -10 -16 -9 0 -19 -7 -22 -15 -4
-8 -13 -15 -21 -15 -8 0 -11 -5 -8 -11 4 -6 -3 -13 -15 -16 -13 -3 -19 -11
-16 -20 4 -8 1 -11 -5 -8 -6 4 -13 -2 -16 -14 -3 -12 -10 -21 -15 -21 -5 0 -6
5 -2 12 4 7 3 8 -4 4 -7 -4 -12 -16 -12 -27 0 -11 -4 -17 -10 -14 -5 3 -10 -1
-10 -10 0 -10 -5 -13 -12 -9 -8 5 -9 2 -5 -9 3 -9 3 -16 -1 -14 -4 1 -18 -7
-32 -17 -20 -14 -21 -17 -5 -12 14 5 10 -2 -13 -24 -18 -16 -30 -30 -26 -30 4
0 -1 -7 -12 -15 -10 -8 -15 -15 -9 -15 5 0 -1 -7 -13 -16 -12 -8 -20 -19 -17
-24 3 -4 -3 -11 -12 -14 -15 -6 -15 -8 -3 -16 12 -8 10 -10 -9 -10 -16 0 -21
-4 -17 -15 3 -10 -1 -15 -12 -16 -11 0 -12 -2 -4 -6 9 -4 7 -10 -7 -22 -12
-10 -18 -20 -16 -23 3 -3 -1 -11 -10 -18 -8 -7 -15 -21 -15 -32 0 -10 -4 -16
-10 -13 -5 3 -10 -3 -10 -14 0 -11 -7 -26 -15 -35 -8 -8 -15 -21 -15 -28 0 -7
-7 -22 -15 -32 -8 -10 -12 -22 -10 -26 3 -5 -2 -11 -11 -14 -13 -5 -14 -9 -3
-22 10 -12 10 -15 -2 -12 -8 2 -13 -4 -13 -14 1 -10 -2 -18 -8 -18 -5 0 -6 -4
-3 -10 3 -5 1 -10 -5 -10 -7 0 -9 -7 -6 -16 3 -8 2 -12 -4 -9 -6 3 -10 -5 -10
-19 0 -14 -4 -27 -9 -31 -6 -3 -8 -14 -6 -25 2 -12 0 -18 -6 -15 -5 4 -9 -2
-9 -12 0 -10 -6 -30 -14 -45 -10 -19 -11 -29 -3 -37 8 -8 8 -11 -1 -11 -7 0
-12 -13 -12 -31 0 -19 -4 -28 -11 -23 -7 4 -7 -1 1 -16 7 -13 8 -20 2 -16 -11
6 -12 1 -13 -61 -1 -18 -4 -33 -8 -33 -3 0 -7 -12 -8 -27 -4 -77 -13 -156 -18
-173 -4 -12 -2 -20 6 -20 8 0 9 -4 0 -13 -8 -10 -7 -17 2 -27 9 -10 9 -11 -1
-6 -9 6 -11 -5 -8 -43 3 -32 0 -51 -6 -51 -7 0 -7 -5 -1 -12 11 -15 11 -28 0
-44 -4 -7 0 -17 8 -24 10 -8 12 -17 6 -28 -5 -9 -5 -26 0 -39 5 -13 4 -25 -2
-28 -5 -4 -7 -11 -3 -16 3 -5 10 -6 16 -3 7 5 8 2 2 -7 -11 -18 -5 -82 8 -90
6 -4 5 -9 -3 -12 -11 -4 -12 -7 -1 -15 7 -5 10 -16 6 -25 -3 -9 -2 -17 4 -17
6 0 8 -9 5 -20 -3 -12 0 -20 7 -20 9 0 10 -3 1 -13 -6 -8 -7 -17 -3 -21 7 -8
8 -13 11 -42 0 -8 5 -13 9 -10 4 3 7 -8 6 -25 -1 -16 2 -29 6 -29 5 0 7 -9 5
-20 -2 -11 0 -20 4 -20 4 0 8 -7 9 -15 1 -8 3 -22 4 -30 1 -8 5 -15 10 -15 4
0 8 -9 8 -19 0 -11 5 -23 11 -26 6 -4 8 -13 5 -21 -3 -8 3 -22 13 -31 11 -9
17 -22 14 -29 -3 -8 0 -14 6 -14 6 0 11 -13 11 -30 0 -16 4 -30 9 -30 5 0 11
-10 13 -22 2 -13 9 -24 16 -24 22 -3 23 -4 11 -25 -6 -12 -7 -19 -1 -15 5 3
16 -9 23 -27 7 -17 19 -36 26 -40 7 -5 11 -12 8 -18 -4 -5 -1 -9 5 -9 6 0 8
-5 5 -10 -3 -6 1 -13 9 -16 9 -3 16 -12 16 -20 0 -8 5 -14 10 -14 6 0 10 -8
10 -19 0 -19 23 -45 32 -35 3 2 8 -2 12 -11 4 -11 2 -14 -7 -9 -6 4 1 -5 16
-19 16 -16 25 -32 21 -39 -5 -8 -2 -9 10 -5 9 4 15 3 12 -2 -3 -4 12 -26 34
-48 21 -22 36 -43 33 -47 -4 -3 -1 -6 6 -6 7 0 9 -5 6 -10 -4 -6 -1 -9 7 -8 7
2 12 -3 11 -9 -2 -7 0 -12 5 -12 17 3 35 -1 29 -7 -8 -8 45 -60 58 -56 5 2 7
1 3 -3 -8 -9 16 -35 32 -35 6 0 8 -4 5 -10 -6 -9 8 -14 28 -11 5 1 6 -3 2 -9
-3 -5 -1 -10 5 -10 6 0 8 -4 5 -10 -3 -5 -1 -10 4 -10 6 0 13 0 16 0 3 0 18
-14 33 -30 16 -16 32 -27 35 -23 4 3 7 -2 7 -13 0 -16 2 -17 10 -4 8 13 10 12
10 -2 0 -10 6 -17 13 -15 6 1 11 -4 9 -11 -1 -8 2 -11 7 -7 6 3 19 -3 31 -15
11 -11 22 -20 25 -20 3 0 12 0 20 0 8 0 15 -7 15 -15 0 -8 3 -14 8 -13 15 4
50 -13 56 -28 3 -8 10 -12 16 -9 5 3 10 1 10 -4 0 -6 7 -11 16 -11 8 0 13 -4
10 -9 -3 -4 6 -7 19 -6 14 2 23 -2 22 -8 -1 -7 4 -11 11 -10 6 2 12 -1 12 -6
0 -5 7 -12 16 -15 15 -6 15 -4 3 11 -9 10 -2 8 18 -6 17 -13 36 -20 42 -17 9
6 15 -5 13 -25 -1 -3 5 -6 13 -6 8 0 11 5 8 10 -4 6 4 3 16 -6 13 -8 30 -13
39 -10 10 4 13 2 8 -5 -5 -8 1 -12 18 -12 14 0 26 -4 26 -8 0 -5 6 -9 13 -10
21 -1 55 -10 74 -20 10 -5 26 -8 36 -7 9 2 17 -1 17 -6 0 -5 14 -9 30 -9 17 0
30 -4 30 -8 0 -4 17 -9 37 -10 20 -2 44 -8 52 -15 12 -9 13 -9 7 1 -4 6 -2 12
3 12 6 0 11 -4 11 -9 0 -4 16 -7 35 -6 35 1 47 -9 23 -18 -10 -4 -10 -6 -1 -6
6 -1 15 4 18 9 3 6 13 10 21 10 9 0 12 -5 8 -11 -5 -8 -2 -9 11 -2 10 6 32 7
51 3 20 -5 37 -3 45 4 9 8 10 8 4 -3 -6 -11 -1 -13 23 -9 17 2 34 0 36 -6 3
-7 5 -6 5 2 1 10 6 10 22 1 12 -6 19 -7 16 -2 -3 4 23 8 58 8 35 0 62 -3 60
-6 -2 -3 9 -3 25 -1 19 3 27 8 23 16 -5 8 -3 8 8 -1 20 -16 31 -17 40 -1 7 10
11 10 17 1 4 -7 13 -9 21 -4 7 5 26 7 42 5 17 -2 28 0 25 4 -2 4 9 7 25 8 18
1 26 -3 22 -10 -4 -6 4 -2 17 9 14 12 20 14 15 5 -6 -10 -2 -9 12 3 14 13 23
15 28 7 5 -8 11 -8 21 1 8 6 14 8 14 4 0 -4 8 -1 17 6 11 10 14 10 9 2 -4 -7
-2 -13 4 -13 6 0 13 7 17 16 4 11 8 12 13 4 5 -8 12 -7 24 5 10 10 16 12 16 4
0 -8 4 -9 13 0 10 7 17 7 24 0 8 -8 13 -7 18 2 5 8 4 10 -3 5 -7 -4 -12 -2
-12 5 0 6 8 9 20 6 11 -3 23 -1 26 5 3 5 15 8 25 5 10 -3 23 1 30 9 6 8 22 14
35 14 13 0 24 5 24 10 0 6 9 10 20 10 11 0 20 5 20 11 0 6 9 9 20 6 12 -3 18
-1 14 5 -5 7 3 9 20 6 18 -4 31 0 39 12 7 9 23 21 36 25 14 4 34 16 45 26 11
11 25 18 30 16 6 -2 19 6 29 17 10 12 16 15 12 9 -4 -9 -1 -11 9 -7 9 3 13 10
10 15 -5 8 9 13 29 10 4 0 7 6 7 14 0 9 6 12 15 9 8 -4 15 -1 15 6 0 6 5 8 10
5 6 -3 10 -1 10 4 0 6 6 11 14 11 8 0 18 5 22 12 5 7 3 8 -6 3 -9 -5 -11 -4
-6 4 4 6 11 9 16 6 5 -3 20 6 34 20 14 14 29 25 34 25 6 0 13 7 16 16 3 8 10
13 15 9 5 -3 12 4 16 14 4 13 11 18 22 14 11 -4 14 -2 9 5 -4 7 -2 12 4 12 6
0 8 5 4 12 -5 8 -2 9 9 5 11 -4 17 -1 17 9 0 8 5 12 10 9 9 -6 14 7 11 27 0 4
7 4 16 1 12 -5 15 -2 10 10 -4 11 -2 14 9 10 7 -3 14 -1 14 4 0 6 10 15 23 22
15 8 16 10 3 6 -16 -5 -17 -3 -6 10 7 8 16 12 21 9 5 -3 9 2 9 11 0 9 4 14 9
11 5 -3 14 8 21 24 7 17 15 29 17 26 8 -8 40 27 47 52 4 12 12 20 17 17 5 -4
9 1 9 9 0 8 9 18 21 21 11 4 18 9 15 12 -3 3 8 25 25 49 17 24 27 49 24 54 -4
6 1 7 11 3 13 -5 16 -3 11 10 -4 10 -2 16 6 14 7 -1 12 8 11 20 0 12 2 22 5
21 21 -2 30 4 25 17 -4 8 -1 15 5 15 6 0 11 7 11 15 0 8 6 15 13 15 8 0 7 4
-3 10 -12 8 -10 10 10 10 20 0 22 2 10 10 -11 7 -11 10 -2 10 7 0 10 5 7 10
-3 6 0 13 9 16 8 3 13 11 10 18 -3 7 2 19 10 26 9 7 13 16 10 21 -3 5 0 9 6 9
6 0 9 4 6 9 -3 5 1 12 10 15 14 5 14 9 3 23 -10 12 -10 14 -1 9 7 -4 12 -2 12
5 0 7 8 21 18 32 16 20 16 20 -3 14 -19 -7 -19 -6 -2 7 10 8 18 17 18 20 -3
21 0 26 10 20 8 -4 8 0 0 15 -10 17 -9 22 4 27 8 3 12 10 9 15 -3 5 1 9 8 9 9
0 9 3 -2 10 -13 9 -13 12 2 20 9 6 15 17 12 25 -4 8 -2 15 4 15 8 0 12 20 13
72 0 10 4 20 9 23 5 3 7 12 3 20 -3 8 -1 15 3 15 5 0 10 14 11 30 2 17 4 46 5
65 2 19 7 35 12 35 5 0 2 8 -5 17 -12 14 -12 16 0 8 11 -6 13 -4 8 7 -3 9 0
21 6 28 9 10 9 14 -1 17 -6 3 -9 10 -5 16 12 20 12 37 0 37 -8 0 -7 4 2 9 9 6
12 20 9 40 -2 17 -1 31 4 31 4 0 8 5 8 11 0 5 -6 7 -12 3 -10 -6 -10 -4 -2 7
11 15 11 43 -2 73 -6 16 -4 18 12 13 19 -7 19 -7 0 8 -11 8 -14 15 -7 15 7 0
10 4 6 9 -11 19 -13 76 -1 83 8 6 7 8 -2 8 -7 0 -10 5 -7 10 3 6 3 10 -2 10
-4 0 -8 17 -9 38 -1 70 -8 117 -19 124 -6 5 -5 8 4 8 11 0 11 3 0 17 -12 15
-12 16 1 8 13 -8 13 -7 1 8 -7 9 -11 26 -8 37 3 13 1 18 -6 13 -6 -4 -8 0 -4
10 4 10 2 17 -5 17 -6 0 -5 6 3 17 8 9 9 14 3 10 -7 -4 -14 0 -18 8 -3 8 -1
15 5 15 6 0 7 5 4 10 -4 6 -11 7 -17 4 -6 -4 -5 3 2 16 10 18 9 21 -1 15 -9
-6 -11 -3 -6 8 3 10 2 17 -4 17 -6 0 -8 9 -4 21 5 16 4 19 -6 14 -9 -6 -11 -3
-6 8 3 10 2 17 -2 17 -5 0 -8 8 -7 17 2 10 -3 24 -11 31 -7 8 -11 18 -8 23 4
5 1 9 -6 9 -8 0 -8 4 1 16 8 8 9 14 4 13 -21 -4 -28 2 -14 11 13 9 13 10 0 10
-9 0 -16 10 -17 22 -1 11 -7 25 -14 29 -7 4 -9 14 -6 23 4 10 1 16 -9 16 -8 0
-13 4 -9 9 3 5 -2 16 -10 24 -18 18 -20 31 -3 21 6 -4 3 4 -8 18 -10 14 -22
24 -26 21 -4 -2 -5 3 -2 11 4 10 1 16 -7 16 -11 0 -11 3 1 10 12 8 10 10 -10
10 -20 0 -22 2 -10 10 10 6 11 10 3 10 -7 0 -13 7 -13 15 0 9 -7 18 -15 21 -8
4 -12 10 -9 15 3 5 0 9 -5 9 -6 0 -11 9 -11 21 0 11 -4 17 -10 14 -5 -3 -10 0
-10 8 0 8 -7 18 -16 21 -8 3 -12 10 -9 16 3 5 1 10 -4 10 -6 0 -11 7 -11 15 0
8 -4 15 -8 15 -5 0 -15 11 -22 25 -8 14 -19 24 -26 21 -8 -3 -11 0 -8 8 3 7
-9 27 -26 44 -16 18 -30 38 -30 46 0 9 -7 13 -19 11 -14 -3 -18 1 -14 11 3 8
0 14 -7 14 -6 0 -8 5 -4 13 5 8 2 7 -9 -2 -15 -12 -17 -12 -11 2 3 10 -4 22
-20 32 -14 10 -23 21 -20 26 3 5 -3 9 -14 9 -10 0 -25 11 -32 25 -7 13 -21 27
-32 31 -10 3 -18 11 -18 17 0 7 -4 6 -10 -3 -5 -8 -10 -10 -10 -4 0 5 6 16 13
23 10 11 10 13 0 7 -7 -4 -13 -3 -13 3 0 5 -9 8 -20 6 -11 -2 -19 1 -17 8 1 7
-4 11 -10 10 -7 -2 -13 5 -13 14 0 9 -3 13 -7 9 -4 -3 -13 4 -20 16 -7 13 -12
18 -13 11 0 -7 -14 1 -30 17 -17 17 -35 30 -41 30 -6 0 -7 4 -4 10 3 6 -1 7
-9 4 -9 -4 -18 1 -22 10 -3 9 -10 16 -16 16 -5 0 -6 -5 -2 -12 4 -7 3 -8 -4
-4 -7 4 -12 15 -12 24 0 15 -2 15 -10 2 -8 -13 -10 -13 -10 2 0 9 -5 20 -12
24 -7 5 -8 3 -3 -7 5 -8 0 -7 -12 4 -11 9 -23 14 -26 10 -4 -3 -7 -1 -7 6 0 7
-7 11 -15 8 -8 -4 -17 -1 -21 5 -5 7 -2 8 7 4 8 -4 5 -1 -5 8 -10 8 -23 13
-27 10 -5 -3 -9 0 -9 5 0 6 -6 10 -12 8 -7 -1 -12 4 -10 11 1 8 -2 10 -8 7 -6
-4 -21 1 -32 12 -12 10 -19 13 -15 7 3 -6 0 -11 -8 -11 -8 0 -12 4 -9 9 5 7
-10 12 -28 9 -5 0 -8 4 -8 10 0 5 -4 7 -10 4 -5 -3 -10 -1 -10 5 0 6 -4 8 -10
5 -5 -3 -10 -1 -10 4 0 6 -14 11 -31 11 -17 0 -28 4 -24 10 9 14 -8 12 -24 -2
-8 -8 -11 -8 -8 -2 4 7 -1 18 -10 25 -12 10 -14 10 -9 2 4 -7 3 -13 -2 -13 -6
0 -12 7 -16 15 -3 8 -12 12 -21 9 -8 -4 -23 0 -32 7 -12 10 -15 10 -9 2 4 -7
2 -13 -3 -13 -6 0 -11 6 -11 13 0 9 -10 12 -30 9 -21 -3 -30 0 -30 9 0 11 -2
11 -10 -1 -8 -12 -10 -12 -10 -1 0 9 -8 12 -26 8 -17 -3 -28 0 -31 10 -5 12
-7 12 -14 1 -6 -9 -9 -10 -9 -1 0 7 -10 13 -22 13 -13 0 -33 1 -45 1 -13 0
-23 5 -23 10 0 6 -8 6 -20 -1 -15 -8 -20 -8 -20 1 0 7 -3 9 -7 6 -3 -4 -13 -1
-21 6 -13 10 -14 9 -8 -2 7 -10 2 -12 -25 -6 -19 5 -41 8 -49 8 -8 0 -21 5
-29 11 -10 7 -13 8 -8 0 4 -7 -6 -11 -28 -11 -19 0 -35 5 -35 11 0 6 -5 5 -12
-2 -16 -16 -31 -15 -22 1 5 8 2 8 -9 -2 -13 -10 -17 -10 -17 -1 0 10 -4 10
-16 -1 -13 -10 -17 -10 -25 2 -5 8 -9 9 -9 2 0 -13 -18 -12 -39 1 -9 6 -12 5
-8 -1z m987 -3847 c0 -3 -4 -8 -10 -11 -5 -3 -10 -1 -10 4 0 6 5 11 10 11 6 0
10 -2 10 -4z"/>
</g>
</svg>
